<?xml version="1.0" encoding="UTF-8"?> <svg xmlns="http://www.w3.org/2000/svg" width="181.797" height="92.319" viewBox="0 0 181.797 92.319"><g id="BBB-graphic-icon" transform="translate(1.102 1)"><g id="svg2" transform="translate(-0.102)"><path id="Path_87" data-name="Path 87" d="M44.048,34h158.8a10.075,10.075,0,0,1,10.048,10.048v46.88a10.075,10.075,0,0,1-10.048,10.048H44.048A10.075,10.075,0,0,1,34,90.928V44.048A10.075,10.075,0,0,1,44.048,34Z" transform="translate(-33.549 -33.549)" fill="#fff" fill-rule="evenodd"></path><path id="Path_88" data-name="Path 88" d="M10.5,0H169.3a10.514,10.514,0,0,1,10.5,10.5v46.88a10.514,10.514,0,0,1-10.5,10.5H10.5A10.514,10.514,0,0,1,0,57.379V10.5A10.514,10.514,0,0,1,10.5,0ZM169.3.916H10.5A9.607,9.607,0,0,0,.916,10.5v46.88A9.607,9.607,0,0,0,10.5,66.963H169.3a9.607,9.607,0,0,0,9.583-9.583V10.5A9.607,9.607,0,0,0,169.3.916Z" fill="#585858" stroke="#585858" stroke-width="2"></path><path id="Path_89" data-name="Path 89" d="M4634,34h107.8a10.075,10.075,0,0,1,10.047,10.048v46.88a10.074,10.074,0,0,1-10.047,10.048H4634Z" transform="translate(-4572.493 -33.549)" fill="#585858" fill-rule="evenodd"></path><path id="Path_90" data-name="Path 90" d="M5405.474,1597.735h2.123l4.5,10.751h-2.4l-.956-2.389h-4.433l-.97,2.389H5401l4.5-10.751Zm2.415,6.278h0l-1.367-3.464-1.367,3.464h2.734Zm4.686-.836h0v-.027a5.38,5.38,0,0,1,5.229-5.522h.252a5.393,5.393,0,0,1,4.114,1.646l-1.486,1.739a3.821,3.821,0,0,0-2.681-1.208,3.141,3.141,0,0,0-3.04,3.318v.027a3.141,3.141,0,0,0,3.04,3.345,3.741,3.741,0,0,0,2.748-1.248l1.473,1.513a5.521,5.521,0,0,1-9.689-3.584l.04-.013Zm10.751,0h0v-.027a5.622,5.622,0,0,1,9.6-3.863l-1.46,1.739a3.823,3.823,0,0,0-2.681-1.208,3.141,3.141,0,0,0-3.04,3.318v.026a3.14,3.14,0,0,0,3.04,3.345,3.737,3.737,0,0,0,2.747-1.248l1.473,1.513a5.521,5.521,0,0,1-9.689-3.584Zm11.534-5.362h4.792a4.1,4.1,0,0,1,3.053,1.088,3.4,3.4,0,0,1,.916,2.442v.027a3.288,3.288,0,0,1-2.243,3.305l2.562,3.81h-2.694l-2.27-3.411h-1.833v3.411h-2.282Zm4.646,5.19h0c1.129,0,1.766-.611,1.766-1.513v-.013c0-1.009-.69-1.526-1.832-1.526h-2.282v3.066Z" transform="translate(-5329.313 -1576.418)" fill="#fff"></path><path id="Path_91" data-name="Path 91" d="M8768,1612h7.91v2.1h-5.615v2.163h4.938v2.084h-4.938v2.243h5.7v2.084H8768Z" transform="translate(-8651.621 -1590.604)" fill="#fff"></path><path id="Path_92" data-name="Path 92" d="M9524,1612h4.089a5.261,5.261,0,0,1,5.574,5.309v.027a5.3,5.3,0,0,1-5.574,5.336H9524Zm4.089,8.548h0a3,3,0,0,0,3.159-2.854v-.372a3.041,3.041,0,0,0-2.867-3.2h-2.07v6.437h1.778Z" transform="translate(-9397.588 -1590.604)" fill="#fff"></path><path id="Path_93" data-name="Path 93" d="M10415,1611.013h2.311v10.672H10415Zm7.367,2.163h-3.186v-2.163h8.693v2.163h-3.186v8.508h-2.309v-8.508Zm7.261-2.163h7.91v2.084h-5.614v2.164h4.951v2.084h-4.951v2.243h5.694v2.084h-7.99v-10.658Z" transform="translate(-10276.762 -1589.617)" fill="#fff"></path><path id="Path_94" data-name="Path 94" d="M12273,1612h4.088a5.261,5.261,0,0,1,5.574,5.309v.027a5.3,5.3,0,0,1-5.574,5.336H12273Zm4.088,8.548h0a3,3,0,0,0,3.159-2.854v-.372a3.04,3.04,0,0,0-2.867-3.2h-2.07v6.437h1.778Z" transform="translate(-12110.1 -1590.604)" fill="#fff"></path><path id="Path_95" data-name="Path 95" d="M7096.014,2989.3h0l1.38-1.673a4.726,4.726,0,0,0,3.146,1.3c.943,0,1.526-.385,1.526-1.009v-.026c0-.6-.358-.916-2.124-1.381-2.124-.557-3.491-1.154-3.491-3.278v-.026c0-1.951,1.54-3.225,3.676-3.225a6.009,6.009,0,0,1,3.916,1.38l-1.195,1.765a4.959,4.959,0,0,0-2.76-1.062c-.89,0-1.354.412-1.354.916v.026c0,.7.464.916,2.27,1.407,2.137.571,3.345,1.354,3.345,3.212v.027c0,2.137-1.606,3.332-3.876,3.332a6.673,6.673,0,0,1-4.473-1.712h.014Z" transform="translate(-7001.814 -2940.427)" fill="#fff"></path><path id="Path_96" data-name="Path 96" d="M6276.067,2997.132h0V2991h2.3v6.079c0,1.752.863,2.654,2.27,2.654s2.27-.876,2.27-2.575V2991h2.3v6.052c0,3.252-1.792,4.845-4.632,4.845s-4.565-1.606-4.565-4.765h.066Z" transform="translate(-6192.699 -2951.3)" fill="#fff"></path><path id="Path_97" data-name="Path 97" d="M5472.013,2990.4h4.9a3.772,3.772,0,0,1,2.761.956,2.459,2.459,0,0,1,.717,1.845v.027a2.5,2.5,0,0,1-1.38,2.3,2.611,2.611,0,0,1,1.978,2.641v.027c0,1.964-1.566,2.947-3.956,2.947H5472V2990.4Zm5.018,8.667h0c1.022,0,1.646-.372,1.646-1.168v-.027c0-.717-.53-1.168-1.726-1.168h-2.681v2.363Zm-.61-4.327h0c1.022,0,1.672-.332,1.672-1.142v-.027c0-.7-.544-1.1-1.526-1.1h-2.3v2.27Z" transform="translate(-5399.37 -2950.7)" fill="#fff"></path><path id="Path_98" data-name="Path 98" d="M7886,2990.013h2.322v10.738H7886Zm4.951,0h2.136l4.938,6.61v-6.61h2.3v10.738h-1.978l-5.11-6.822v6.822h-2.3v-10.738Zm11.905,0h7.964v2.1h-5.654v2.177h4.964v2.1h-4.964v2.256h5.721v2.1h-8.03v-10.724Z" transform="translate(-7781.329 -2950.313)" fill="#fff"></path><path id="Path_99" data-name="Path 99" d="M9859.053,2990.285l1.38-1.673a4.727,4.727,0,0,0,3.146,1.3c.942,0,1.525-.385,1.525-1.009v-.026c0-.6-.358-.916-2.123-1.38-2.124-.557-3.491-1.155-3.491-3.278v-.027c0-1.951,1.54-3.212,3.677-3.212a6.008,6.008,0,0,1,3.915,1.38l-1.207,1.765a4.962,4.962,0,0,0-2.762-1.062c-.889,0-1.38.411-1.38.916v.027c0,.7.465.916,2.27,1.407,2.137.571,3.346,1.354,3.346,3.212v.026c0,2.137-1.593,3.332-3.876,3.332a6.677,6.677,0,0,1-4.475-1.712h.041Zm9.489,0h0l1.381-1.673a4.728,4.728,0,0,0,3.146,1.3c.956,0,1.526-.385,1.526-1.009v-.026c0-.6-.357-.916-2.123-1.38-2.125-.557-3.49-1.155-3.49-3.278v-.027c0-1.951,1.538-3.212,3.676-3.212a6.01,6.01,0,0,1,3.916,1.38l-1.2,1.765a4.962,4.962,0,0,0-2.761-1.062c-.89,0-1.38.411-1.38.916v.027c0,.7.465.916,2.3,1.407,2.138.571,3.345,1.354,3.345,3.225v.027c0,2.137-1.592,3.332-3.876,3.332a6.675,6.675,0,0,1-4.473-1.712Z" transform="translate(-9728.139 -2941.413)" fill="#fff"></path><path id="Path_100" data-name="Path 100" d="M1484.83,3100H1462.8l-.8,2.641h5.867l1.115,3.65h9.663l1.115-3.65h5.867Z" transform="translate(-1442.595 -3058.854)" fill="#585858"></path><path id="Path_101" data-name="Path 101" d="M1022.366,396.317a5.247,5.247,0,0,0,1.155,7.3l5.269,3.849a1.314,1.314,0,0,1,.292,1.832l.8.584,2.787-3.862a5.191,5.191,0,0,0,1-3.066,5.9,5.9,0,0,0-.066-.836,5.219,5.219,0,0,0-2.084-3.411l-5.27-3.849a1.309,1.309,0,0,1-.518-.85,1.139,1.139,0,0,1-.013-.212,1.245,1.245,0,0,1,.252-.77l-.8-.584-2.787,3.876Zm3.172-15.45h0a7.623,7.623,0,0,0,1.686,10.605l6.623,4.831a3.994,3.994,0,0,1,1.619,2.655,3.481,3.481,0,0,1,.053.65,4.031,4.031,0,0,1-.77,2.376l.637.465,5.216-7.274a7.593,7.593,0,0,0-1.686-10.592l-8-5.84a2.351,2.351,0,0,1-.518-3.278l-.637-.465-4.234,5.867Zm-13.525,38.81h6.026a4.69,4.69,0,0,1,3.4,1.155,2.972,2.972,0,0,1,.889,2.217v.04a3.009,3.009,0,0,1-1.712,2.814,3.2,3.2,0,0,1,2.429,3.212v.04c0,2.389-1.938,3.584-4.871,3.584H1012V419.677Zm5.415,5.283h0c1.261,0,2.057-.411,2.057-1.38v-.04c0-.863-.664-1.354-1.872-1.354H1014.8v2.761Zm.77,5.256h0c1.261,0,2.031-.451,2.031-1.42v-.04c0-.876-.65-1.42-2.124-1.42H1014.8V430.2h3.411Zm6.106-10.539h6.039a4.691,4.691,0,0,1,3.4,1.155,2.972,2.972,0,0,1,.889,2.217v.04a3.009,3.009,0,0,1-1.712,2.814,3.2,3.2,0,0,1,2.429,3.212v.04c0,2.389-1.938,3.584-4.871,3.584h-6.185V419.677h.014Zm5.428,5.283h0c1.261,0,2.057-.411,2.057-1.38v-.04c0-.863-.664-1.354-1.872-1.354h-2.827v2.761Zm.757,5.256h0c1.261,0,2.031-.451,2.031-1.42v-.04c0-.876-.65-1.42-2.124-1.42h-3.305V430.2h3.411Zm6.106-10.539h6.039a4.691,4.691,0,0,1,3.4,1.155,2.972,2.972,0,0,1,.889,2.217v.04a3.009,3.009,0,0,1-1.712,2.814,3.2,3.2,0,0,1,2.429,3.212v.04c0,2.389-1.938,3.584-4.871,3.584h-6.185V419.677h.013Zm5.429,5.283h0c1.261,0,2.057-.411,2.057-1.38v-.04c0-.863-.664-1.354-1.871-1.354h-2.827v2.761Zm.757,5.256h0c1.261,0,2.031-.451,2.031-1.42v-.04c0-.876-.65-1.42-2.124-1.42h-3.3V430.2h3.4Z" transform="translate(-998.568 -370.023)" fill="#585858"></path><path id="Path_102" data-name="Path 102" d="M3715,4485.513v-.014a1.493,1.493,0,1,1,2.986-.013v.013a1.493,1.493,0,1,1-2.986.014Zm2.854-.014h0v-.013a1.36,1.36,0,1,0-2.721.013v.014a1.36,1.36,0,0,0,2.721-.014Zm-1.938-.809h.69a.609.609,0,0,1,.451.159.413.413,0,0,1,.119.292v.013a.447.447,0,0,1-.4.452l.478.61h-.279l-.438-.584h-.4v.584h-.226Zm.664.756h0c.212,0,.358-.093.358-.279v-.014c0-.158-.133-.265-.345-.265h-.451v.544h.438Z" transform="translate(-3665.69 -4424.483)" fill="#015975"></path></g><path id="Path_112" data-name="Path 112" d="M-52.707-10.021h5.8a3.16,3.16,0,0,1,2.225.718,2.324,2.324,0,0,1,.776,1.777A2.243,2.243,0,0,1-44.463-6a2.466,2.466,0,0,1-1.08.67,2.8,2.8,0,0,1,1.589.892,2.453,2.453,0,0,1,.509,1.589,2.733,2.733,0,0,1-.362,1.4,2.668,2.668,0,0,1-.991.984,3.272,3.272,0,0,1-1.176.328A13.564,13.564,0,0,1-47.361,0h-5.346Zm3.124,3.931h1.347a1.547,1.547,0,0,0,1.008-.25.909.909,0,0,0,.284-.721.857.857,0,0,0-.284-.684,1.523,1.523,0,0,0-.988-.246h-1.367Zm0,3.938H-48a1.737,1.737,0,0,0,1.128-.284.956.956,0,0,0,.328-.762.883.883,0,0,0-.325-.714,1.815,1.815,0,0,0-1.138-.27h-1.572Zm7.416-7.868h5.8a3.16,3.16,0,0,1,2.225.718,2.324,2.324,0,0,1,.776,1.777A2.243,2.243,0,0,1-33.923-6a2.466,2.466,0,0,1-1.08.67,2.8,2.8,0,0,1,1.589.892A2.453,2.453,0,0,1-32.9-2.851a2.733,2.733,0,0,1-.362,1.4,2.668,2.668,0,0,1-.991.984,3.272,3.272,0,0,1-1.176.328A13.564,13.564,0,0,1-36.822,0h-5.346Zm3.124,3.931H-37.7a1.547,1.547,0,0,0,1.008-.25.909.909,0,0,0,.284-.721.857.857,0,0,0-.284-.684,1.523,1.523,0,0,0-.988-.246h-1.367Zm0,3.938h1.579a1.737,1.737,0,0,0,1.128-.284.956.956,0,0,0,.328-.762.883.883,0,0,0-.325-.714,1.815,1.815,0,0,0-1.138-.27h-1.572Zm7.416-7.868h5.8a3.16,3.16,0,0,1,2.225.718,2.324,2.324,0,0,1,.776,1.777A2.243,2.243,0,0,1-23.384-6a2.466,2.466,0,0,1-1.08.67,2.8,2.8,0,0,1,1.589.892,2.453,2.453,0,0,1,.509,1.589,2.733,2.733,0,0,1-.362,1.4,2.668,2.668,0,0,1-.991.984,3.272,3.272,0,0,1-1.176.328A13.564,13.564,0,0,1-26.282,0h-5.346ZM-28.5-6.091h1.347a1.547,1.547,0,0,0,1.008-.25.909.909,0,0,0,.284-.721.857.857,0,0,0-.284-.684,1.523,1.523,0,0,0-.988-.246H-28.5Zm0,3.938h1.579A1.737,1.737,0,0,0-25.8-2.437a.956.956,0,0,0,.328-.762.883.883,0,0,0-.325-.714,1.815,1.815,0,0,0-1.138-.27H-28.5ZM-16.735,0V-10.021h5.161a7.5,7.5,0,0,1,2.194.246,2.336,2.336,0,0,1,1.224.913,2.767,2.767,0,0,1,.465,1.624A2.789,2.789,0,0,1-8.047-5.8a2.78,2.78,0,0,1-.978.981,3.747,3.747,0,0,1-1.088.4,3.085,3.085,0,0,1,.806.369,3.123,3.123,0,0,1,.5.527,3.932,3.932,0,0,1,.434.623l1.5,2.9h-3.5l-1.655-3.062a2.334,2.334,0,0,0-.561-.772,1.3,1.3,0,0,0-.759-.232h-.273V0Zm3.11-5.961h1.306A4.666,4.666,0,0,0-11.5-6.1a.819.819,0,0,0,.5-.314.926.926,0,0,0,.195-.581.921.921,0,0,0-.308-.745A1.861,1.861,0,0,0-12.264-8h-1.36Zm9.74,1.053-2.659-.28a2.985,2.985,0,0,1,.434-1.1,2.394,2.394,0,0,1,.817-.694A3.419,3.419,0,0,1-4.24-7.308a8.489,8.489,0,0,1,1.449-.116,11.517,11.517,0,0,1,2.01.14A2.583,2.583,0,0,1,.483-6.7a2.05,2.05,0,0,1,.561.872,3.149,3.149,0,0,1,.205,1.077v3.206a3.869,3.869,0,0,0,.065.8A3.605,3.605,0,0,0,1.6,0H-1.014a2.664,2.664,0,0,1-.205-.427,3.17,3.17,0,0,1-.1-.461A3.6,3.6,0,0,1-2.4-.137a4.524,4.524,0,0,1-1.716.3,2.872,2.872,0,0,1-1.972-.6,1.911,1.911,0,0,1-.673-1.483,1.943,1.943,0,0,1,.485-1.36,3.284,3.284,0,0,1,1.791-.793q1.565-.314,2.03-.441a9.451,9.451,0,0,0,.984-.332.979.979,0,0,0-.212-.718,1.064,1.064,0,0,0-.745-.205,1.927,1.927,0,0,0-1.025.219A1.2,1.2,0,0,0-3.885-4.908Zm2.413,1.463q-.574.205-1.2.362a2.765,2.765,0,0,0-1.073.444.7.7,0,0,0-.232.513.693.693,0,0,0,.229.537.969.969,0,0,0,.673.208,1.731,1.731,0,0,0,.865-.226,1.365,1.365,0,0,0,.567-.55A1.842,1.842,0,0,0-1.472-3Zm7.156-6.576V-7.26H7.215v2.037H5.684v2.572a1.383,1.383,0,0,0,.089.614.509.509,0,0,0,.479.232,3.055,3.055,0,0,0,.861-.177L7.318-.062A9.059,9.059,0,0,1,5.39.164,3.354,3.354,0,0,1,3.859-.1a1.624,1.624,0,0,1-.728-.809A4.755,4.755,0,0,1,2.9-2.669V-5.223H1.87V-7.26H2.9V-8.593Zm2.61,0h2.782v1.894H8.294Zm0,2.762h2.782V0H8.294Zm4.21,0h2.591v1.183A3.857,3.857,0,0,1,16.27-7.113a3.1,3.1,0,0,1,1.449-.311,2.375,2.375,0,0,1,1.808.687,2.989,2.989,0,0,1,.653,2.123V0h-2.8V-3.992a1.453,1.453,0,0,0-.253-.967.9.9,0,0,0-.711-.284,1.011,1.011,0,0,0-.82.383,2.228,2.228,0,0,0-.314,1.374V0H12.5Zm14.04,0h2.6V-.4l.007.321a3.027,3.027,0,0,1-.291,1.3,2.741,2.741,0,0,1-.772,1,3.033,3.033,0,0,1-1.224.554,7.606,7.606,0,0,1-1.7.171,5,5,0,0,1-3-.656A2.138,2.138,0,0,1,21.348.533q0-.137.014-.369l2.7.308a.878.878,0,0,0,.314.52,1.331,1.331,0,0,0,.772.212,1.167,1.167,0,0,0,.9-.321,1.649,1.649,0,0,0,.3-1.121v-1.1a2.9,2.9,0,0,1-.82.7,2.91,2.91,0,0,1-1.388.342,2.752,2.752,0,0,1-2.352-1.271,4.061,4.061,0,0,1-.636-2.386,3.68,3.68,0,0,1,.82-2.584,2.785,2.785,0,0,1,2.146-.889,3.009,3.009,0,0,1,1.4.287,3.044,3.044,0,0,1,1.029.95ZM23.925-3.739a1.723,1.723,0,0,0,.335,1.166,1.12,1.12,0,0,0,.882.379,1.123,1.123,0,0,0,.872-.393,1.731,1.731,0,0,0,.352-1.186A1.784,1.784,0,0,0,26-4.987a1.156,1.156,0,0,0-.9-.42,1.046,1.046,0,0,0-.851.386A2.029,2.029,0,0,0,23.925-3.739ZM41.144-1.654H37.628L37.14,0H33.978l3.767-10.021h3.378L44.888,0H41.645ZM40.5-3.821,39.4-7.424,38.3-3.821ZM45.365-6.1h2.618V-8.736h2.208V-6.1h2.632V-3.9H50.192v2.618H47.984V-3.9H45.365Z" transform="translate(89.898 88.373)" fill="#585858"></path></g></svg> 